{"title":"Chris.Ryans.Elite.World.Cops.S01E02.Brazil.PDTV.XviD","uid":4722514,"size":366688584,"categoryP":"video","categoryS":"tv_shows","magnet":"?xt=urn:btih:c015d9880fbea25d2038e3e36221cf261da1ebc2&amp;dn=Chris.Ryans.Elite.World.Cops.S01E02.Brazil.PDTV.XviD&amp;tr=udp%3A%2F%2Ftracker.openbittorrent.com%3A80&amp;tr=udp%3A%2F%2Fopen.demonii.com%3A1337&amp;tr=udp%3A%2F%2Ftracker.coppersurfer.tk%3A6969&amp;tr=udp%3A%2F%2Fexodus.desync.com%3A6969","seeders":3,"leechers":0,"uploader":"rokfelerr","files":-1,"time":1234592663,"description":"The author and former SAS soldier shadows the world's most remarkable police units to confront crime on the frontline. In Rio de Janeiro he operates alongside the BOPE, the special operations battalion of Brazil's military police, as they embark on a typical mission in the city's slums which are rife with drug-dealing gangs.\n\n\n:: ScreenShot ::  &lt;a href=&quot;\nhttp://bayimg.com/EanCcAabJ&quot; rel=&quot;nofollow&quot; target=&quot;_NEW&quot;&gt;\nhttp://bayimg.com/EanCcAabJ&lt;/a&gt;\n\n\nVideo\nFormat                           : MPEG-4 Visual\nCodec ID/Hint                    : XviD\nDuration                         : 43mn 54s\nBit rate                         : 975 Kbps\nWidth                            : 624 pixels\nHeight                           : 352 pixels\nDisplay aspect ratio             : 16/9\nFrame rate                       : 25.000 fps\nResolution                       : 24 bits\nColorimetry                      : 4:2:0\nScan type                        : Progressive\nBits/(Pixel*Frame)               : 0.178\nStream size                      : 306 MiB (88%)\nWriting library                  : XviD 1.0.3 (UTC 2004-12-20)\n\nAudio\nFormat                           : MPEG Audio\nFormat version                   : Version 1\nFormat profile                   : Layer 3\nCodec ID                         : 55\nCodec ID/Hint                    : MP3\nDuration                         : 43mn 54s\nBit rate mode                    : Variable\nBit rate                         : 125 Kbps\nNominal bit rate                 : 128 Kbps\nChannel(s)                       : 2 channels\nSampling rate                    : 48.0 KHz\nResolution                       : 16 bits\nStream size                      : 39.4 MiB (11%)\nAlignment                        : Aligned on interleaves\nInterleave, duration             : 24 ms (0.60 video frame)\nInterleave, preload duration     : 147 ms\nWriting library                  : LAME3.90.\nEncoding settings                : ABR","torrent":{"xt":"urn:btih:c015d9880fbea25d2038e3e36221cf261da1ebc2","amp;dn":"Chris.Ryans.Elite.World.Cops.S01E02.Brazil.PDTV.XviD","amp;tr":["udp%3A%2F%2Ftracker.openbittorrent.com%3A80","udp%3A%2F%2Fopen.demonii.com%3A1337","udp%3A%2F%2Ftracker.coppersurfer.tk%3A6969","udp%3A%2F%2Fexodus.desync.com%3A6969"],"infoHash":"c015d9880fbea25d2038e3e36221cf261da1ebc2","infoHashBuffer":{"type":"Buffer","data":[192,21,217,136,15,190,162,93,32,56,227,227,98,33,207,38,29,161,235,194]},"announce":[],"urlList":[]}}